<?xml version="1.0" encoding="UTF-8" standalone="no"?>
<!DOCTYPE svg PUBLIC "-//W3C//DTD SVG 1.1//EN" "http://www.w3.org/Graphics/SVG/1.1/DTD/svg11.dtd"
[
<!ATTLIST g
  xmlns:vectornator CDATA #FIXED "http://vectornator.io"
  vectornator:layerName CDATA #IMPLIED >
<!ATTLIST g
  xmlns:vectornator CDATA #FIXED "http://vectornator.io"
  vectornator:mask CDATA #IMPLIED >
<!ATTLIST text
  xmlns:vectornator CDATA #FIXED "http://vectornator.io"
  vectornator:width CDATA #IMPLIED >
<!ATTLIST text
  xmlns:vectornator CDATA #FIXED "http://vectornator.io"
  vectornator:text CDATA #IMPLIED >

<!ATTLIST path
  xmlns:vectornator CDATA #FIXED "http://vectornator.io"
  vectornator:blendMode CDATA #IMPLIED >
<!ATTLIST path
  xmlns:vectornator CDATA #FIXED "http://vectornator.io"
  vectornator:shadowColor CDATA #IMPLIED >
<!ATTLIST path
  xmlns:vectornator CDATA #FIXED "http://vectornator.io"
  vectornator:shadowOpacity CDATA #IMPLIED >
<!ATTLIST path
  xmlns:vectornator CDATA #FIXED "http://vectornator.io"
  vectornator:shadowRadius CDATA #IMPLIED >
<!ATTLIST path
  xmlns:vectornator CDATA #FIXED "http://vectornator.io"
  vectornator:shadowOffset CDATA #IMPLIED >
<!ATTLIST path
  xmlns:vectornator CDATA #FIXED "http://vectornator.io"
  vectornator:shadowAngle CDATA #IMPLIED >

<!ATTLIST image
  xmlns:vectornator CDATA #FIXED "http://vectornator.io"
  vectornator:blendMode CDATA #IMPLIED >
<!ATTLIST image
  xmlns:vectornator CDATA #FIXED "http://vectornator.io"
  vectornator:shadowColor CDATA #IMPLIED >
<!ATTLIST image
  xmlns:vectornator CDATA #FIXED "http://vectornator.io"
  vectornator:shadowOpacity CDATA #IMPLIED >
<!ATTLIST image
  xmlns:vectornator CDATA #FIXED "http://vectornator.io"
  vectornator:shadowRadius CDATA #IMPLIED >
<!ATTLIST image
  xmlns:vectornator CDATA #FIXED "http://vectornator.io"
  vectornator:shadowOffset CDATA #IMPLIED >
<!ATTLIST image
  xmlns:vectornator CDATA #FIXED "http://vectornator.io"
  vectornator:shadowAngle CDATA #IMPLIED >

<!ATTLIST g
  xmlns:vectornator CDATA #FIXED "http://vectornator.io"
  vectornator:blendMode CDATA #IMPLIED >
<!ATTLIST g
  xmlns:vectornator CDATA #FIXED "http://vectornator.io"
  vectornator:shadowColor CDATA #IMPLIED >
<!ATTLIST g
  xmlns:vectornator CDATA #FIXED "http://vectornator.io"
  vectornator:shadowOpacity CDATA #IMPLIED >
<!ATTLIST g
  xmlns:vectornator CDATA #FIXED "http://vectornator.io"
  vectornator:shadowRadius CDATA #IMPLIED >
<!ATTLIST g
  xmlns:vectornator CDATA #FIXED "http://vectornator.io"
  vectornator:shadowOffset CDATA #IMPLIED >
<!ATTLIST g
  xmlns:vectornator CDATA #FIXED "http://vectornator.io"
  vectornator:shadowAngle CDATA #IMPLIED >

<!ENTITY % SVG.filter.extra.content  "| feDropShadow" >
<!ELEMENT feDropShadow EMPTY>
<!ATTLIST feDropShadow
  xmlns:svg CDATA #FIXED "http://www.w3.org/Graphics/SVG/1.1/DTD/svg11.dtd"
  dx CDATA #IMPLIED>
<!ATTLIST feDropShadow
  xmlns:svg CDATA #FIXED "http://www.w3.org/Graphics/SVG/1.1/DTD/svg11.dtd"
  dy CDATA #IMPLIED>
<!ATTLIST feDropShadow
  xmlns:svg CDATA #FIXED "http://www.w3.org/Graphics/SVG/1.1/DTD/svg11.dtd"
  stdDeviation CDATA #IMPLIED>
<!ATTLIST feDropShadow
  xmlns:svg CDATA #FIXED "http://www.w3.org/Graphics/SVG/1.1/DTD/svg11.dtd"
  flood-opacity CDATA #IMPLIED>
<!ATTLIST feDropShadow
  xmlns:svg CDATA #FIXED "http://www.w3.org/Graphics/SVG/1.1/DTD/svg11.dtd"
  in CDATA #IMPLIED>
<!ATTLIST feDropShadow
  xmlns:svg CDATA #FIXED "http://www.w3.org/Graphics/SVG/1.1/DTD/svg11.dtd"
  result CDATA #IMPLIED>
<!ATTLIST feDropShadow
  xmlns:svg CDATA #FIXED "http://www.w3.org/Graphics/SVG/1.1/DTD/svg11.dtd"
  flood-color CDATA #IMPLIED>
]
>
<!-- Created with Vectornator (http://vectornator.io/) -->
<svg height="100%" stroke-miterlimit="10" style="fill-rule:nonzero;clip-rule:evenodd;stroke-linecap:round;stroke-linejoin:round;" version="1.1" viewBox="0 0 384.121 61.7488" width="100%" xml:space="preserve" xmlns="http://www.w3.org/2000/svg" xmlns:vectornator="http://vectornator.io" xmlns:xlink="http://www.w3.org/1999/xlink">
<defs/>
<clipPath id="ArtboardFrame">
<rect height="61.7488" width="384.121" x="0" y="0"/>
</clipPath>
<g clip-path="url(#ArtboardFrame)" id="Layer-1" vectornator:layerName="Layer 1">
<g opacity="1">
<path d="M102.955 52.4839L102.955 16.9781L96.5569 16.9781L96.5569 10.0028L118.741 10.0028L118.741 16.9781L112.396 16.9781L112.396 52.4839L102.955 52.4839Z" fill="#f9f9f9" fill-rule="evenodd" opacity="1" stroke="none"/>
<path d="M134.213 53.1132C131.031 53.1132 128.514 52.5538 126.661 51.4349C124.808 50.3161 123.479 48.7078 122.675 46.6099C121.871 44.5121 121.469 42.0122 121.469 39.1102L121.469 23.324C121.469 20.387 121.871 17.8871 122.675 15.8243C123.479 13.7614 124.808 12.1793 126.661 11.0779C128.514 9.97655 131.031 9.42587 134.213 9.42587C137.43 9.42587 139.973 9.97655 141.844 11.0779C143.714 12.1793 145.052 13.7614 145.856 15.8243C146.66 17.8871 147.062 20.387 147.062 23.324L147.062 39.1102C147.062 42.0122 146.66 44.5121 145.856 46.6099C145.052 48.7078 143.714 50.3161 141.844 51.4349C139.973 52.5538 137.43 53.1132 134.213 53.1132ZM134.213 46.4526C135.192 46.4526 135.909 46.2078 136.363 45.7184C136.818 45.2289 137.115 44.5995 137.255 43.8303C137.395 43.0611 137.465 42.2744 137.465 41.4702L137.465 21.0164C137.465 20.1773 137.395 19.3818 137.255 18.6301C137.115 17.8784 136.818 17.2578 136.363 16.7683C135.909 16.2788 135.192 16.034 134.213 16.034C133.304 16.034 132.622 16.2788 132.168 16.7683C131.713 17.2578 131.416 17.8784 131.276 18.6301C131.136 19.3818 131.066 20.1773 131.066 21.0164L131.066 41.4702C131.066 42.2744 131.127 43.0611 131.25 43.8303C131.372 44.5995 131.652 45.2289 132.089 45.7184C132.526 46.2078 133.234 46.4526 134.213 46.4526Z" fill="#f9f9f9" fill-rule="evenodd" opacity="1" stroke="none"/>
<path d="M152.779 52.4839L152.779 10.0028L167.044 10.0028C169.596 10.0028 171.694 10.4835 173.338 11.445C174.981 12.4065 176.205 13.8051 177.009 15.6407C177.813 17.4763 178.215 19.7052 178.215 22.3275C178.215 25.6141 177.673 28.1228 176.589 29.8535C175.505 31.5842 174.037 32.7817 172.184 33.446C170.331 34.1104 168.25 34.4425 165.943 34.4425L162.167 34.4425L162.167 52.4839L152.779 52.4839ZM162.167 27.8868L165.313 27.8868C166.467 27.8868 167.341 27.677 167.936 27.2574C168.53 26.8379 168.923 26.2085 169.116 25.3694C169.308 24.5303 169.404 23.4639 169.404 22.1702C169.404 21.0863 169.325 20.1335 169.168 19.3119C169.011 18.4902 168.635 17.8347 168.04 17.3452C167.446 16.8557 166.52 16.6109 165.261 16.6109L162.167 16.6109L162.167 27.8868Z" fill="#f9f9f9" fill-rule="evenodd" opacity="1" stroke="none"/>
<path d="M182.778 52.4839L182.778 10.0028L192.166 10.0028L192.166 52.4839L182.778 52.4839Z" fill="#f9f9f9" fill-rule="evenodd" opacity="1" stroke="none"/>
<path d="M210.679 53.1132C207.462 53.1132 204.919 52.5276 203.048 51.3563C201.177 50.185 199.858 48.5417 199.088 46.4264C198.319 44.3111 197.935 41.8199 197.935 38.9528L197.935 23.6387C197.935 20.7017 198.319 18.1756 199.088 16.0603C199.858 13.9449 201.177 12.3104 203.048 11.1566C204.919 10.0028 207.462 9.42587 210.679 9.42587C213.826 9.42587 216.282 9.94158 218.048 10.973C219.813 12.0045 221.063 13.4467 221.797 15.2998C222.532 17.1529 222.899 19.2857 222.899 21.6982L222.899 25.3694L213.721 25.3694L213.721 21.1213C213.721 20.2821 213.677 19.478 213.59 18.7088C213.502 17.9396 213.249 17.3015 212.829 16.7945C212.41 16.2875 211.693 16.034 210.679 16.034C209.7 16.034 208.974 16.2963 208.502 16.8207C208.03 17.3452 207.733 18.0008 207.611 18.7874C207.488 19.5741 207.427 20.4045 207.427 21.2786L207.427 41.2605C207.427 42.2045 207.506 43.0698 207.663 43.8565C207.821 44.6432 208.135 45.2726 208.607 45.7446C209.079 46.2166 209.77 46.4526 210.679 46.4526C211.658 46.4526 212.357 46.1991 212.777 45.6921C213.196 45.1852 213.459 44.5296 213.563 43.7254C213.668 42.9212 213.721 42.0996 213.721 41.2605L213.721 36.8026L222.899 36.8026L222.899 40.4738C222.899 42.8863 222.54 45.0453 221.824 46.9508C221.107 48.8564 219.866 50.3598 218.1 51.4612C216.334 52.5625 213.861 53.1132 210.679 53.1132Z" fill="#f9f9f9" fill-rule="evenodd" opacity="1" stroke="none"/>
<path d="M252.74 53.1132C250.083 53.1132 247.863 52.6412 246.08 51.6972C244.297 50.7531 242.951 49.2934 242.041 47.3179C241.132 45.3425 240.625 42.7814 240.521 39.6346L248.545 38.4284C248.58 40.2465 248.746 41.715 249.043 42.8338C249.34 43.9527 249.76 44.7568 250.302 45.2463C250.844 45.7358 251.499 45.9806 252.268 45.9806C253.247 45.9806 253.886 45.6484 254.183 44.9841C254.48 44.3198 254.628 43.6205 254.628 42.8863C254.628 41.1381 254.209 39.6609 253.37 38.4546C252.531 37.2484 251.394 36.0334 249.961 34.8096L246.29 31.6104C244.681 30.2468 243.326 28.6997 242.225 26.969C241.124 25.2383 240.573 23.0967 240.573 20.5444C240.573 16.9431 241.639 14.1897 243.772 12.2842C245.905 10.3786 248.807 9.42587 252.478 9.42587C254.751 9.42587 256.578 9.81047 257.959 10.5797C259.34 11.3489 260.389 12.3541 261.106 13.5953C261.822 14.8365 262.312 16.1477 262.574 17.5287C262.836 18.9098 262.985 20.2297 263.02 21.4884L254.943 22.4849C254.908 21.2262 254.83 20.1335 254.707 19.207C254.585 18.2805 254.331 17.5637 253.947 17.0567C253.562 16.5498 252.968 16.2963 252.164 16.2963C251.289 16.2963 250.651 16.6634 250.249 17.3976C249.847 18.1319 249.646 18.8661 249.646 19.6003C249.646 21.1737 250.022 22.4586 250.774 23.4551C251.525 24.4516 252.513 25.4918 253.737 26.5756L257.251 29.6699C259.104 31.2433 260.668 33.0265 261.945 35.0194C263.221 37.0124 263.859 39.4773 263.859 42.4143C263.859 44.4072 263.404 46.2166 262.495 47.8424C261.586 49.4682 260.301 50.7531 258.641 51.6972C256.98 52.6412 255.013 53.1132 252.74 53.1132Z" fill="#f9f9f9" fill-rule="evenodd" opacity="1" stroke="none"/>
<path d="M280.589 53.1132C277.372 53.1132 274.829 52.5276 272.958 51.3563C271.088 50.185 269.768 48.5417 268.999 46.4264C268.229 44.3111 267.845 41.8199 267.845 38.9528L267.845 23.6387C267.845 20.7017 268.229 18.1756 268.999 16.0603C269.768 13.9449 271.088 12.3104 272.958 11.1566C274.829 10.0028 277.372 9.42587 280.589 9.42587C283.736 9.42587 286.192 9.94158 287.958 10.973C289.723 12.0045 290.973 13.4467 291.708 15.2998C292.442 17.1529 292.809 19.2857 292.809 21.6982L292.809 25.3694L283.631 25.3694L283.631 21.1213C283.631 20.2821 283.587 19.478 283.5 18.7088C283.412 17.9396 283.159 17.3015 282.739 16.7945C282.32 16.2875 281.603 16.034 280.589 16.034C279.61 16.034 278.885 16.2963 278.413 16.8207C277.941 17.3452 277.643 18.0008 277.521 18.7874C277.399 19.5741 277.338 20.4045 277.338 21.2786L277.338 41.2605C277.338 42.2045 277.416 43.0698 277.574 43.8565C277.731 44.6432 278.046 45.2726 278.518 45.7446C278.99 46.2166 279.68 46.4526 280.589 46.4526C281.568 46.4526 282.267 46.1991 282.687 45.6921C283.107 45.1852 283.369 44.5296 283.474 43.7254C283.579 42.9212 283.631 42.0996 283.631 41.2605L283.631 36.8026L292.809 36.8026L292.809 40.4738C292.809 42.8863 292.451 45.0453 291.734 46.9508C291.017 48.8564 289.776 50.3598 288.01 51.4612C286.245 52.5625 283.771 53.1132 280.589 53.1132Z" fill="#f9f9f9" fill-rule="evenodd" opacity="1" stroke="none"/>
<path d="M310.116 53.1132C306.934 53.1132 304.417 52.5538 302.564 51.4349C300.711 50.3161 299.382 48.7078 298.578 46.6099C297.774 44.5121 297.372 42.0122 297.372 39.1102L297.372 23.324C297.372 20.387 297.774 17.8871 298.578 15.8243C299.382 13.7614 300.711 12.1793 302.564 11.0779C304.417 9.97655 306.934 9.42587 310.116 9.42587C313.333 9.42587 315.876 9.97655 317.747 11.0779C319.618 12.1793 320.955 13.7614 321.759 15.8243C322.563 17.8871 322.965 20.387 322.965 23.324L322.965 39.1102C322.965 42.0122 322.563 44.5121 321.759 46.6099C320.955 48.7078 319.618 50.3161 317.747 51.4349C315.876 52.5538 313.333 53.1132 310.116 53.1132ZM310.116 46.4526C311.095 46.4526 311.812 46.2078 312.266 45.7184C312.721 45.2289 313.018 44.5995 313.158 43.8303C313.298 43.0611 313.368 42.2744 313.368 41.4702L313.368 21.0164C313.368 20.1773 313.298 19.3818 313.158 18.6301C313.018 17.8784 312.721 17.2578 312.266 16.7683C311.812 16.2788 311.095 16.034 310.116 16.034C309.207 16.034 308.525 16.2788 308.071 16.7683C307.616 17.2578 307.319 17.8784 307.179 18.6301C307.039 19.3818 306.969 20.1773 306.969 21.0164L306.969 41.4702C306.969 42.2744 307.031 43.0611 307.153 43.8303C307.275 44.5995 307.555 45.2289 307.992 45.7184C308.429 46.2078 309.137 46.4526 310.116 46.4526Z" fill="#f9f9f9" fill-rule="evenodd" opacity="1" stroke="none"/>
<path d="M340.954 53.1132C337.703 53.1132 335.159 52.58 333.323 51.5136C331.488 50.4472 330.203 48.8913 329.469 46.8459C328.734 44.8005 328.367 42.2919 328.367 39.32L328.367 10.0028L337.65 10.0028L337.65 40.736C337.65 41.6101 337.72 42.4842 337.86 43.3583C338 44.2324 338.306 44.9491 338.778 45.5086C339.25 46.068 339.975 46.3477 340.954 46.3477C341.968 46.3477 342.702 46.068 343.157 45.5086C343.612 44.9491 343.9 44.2324 344.022 43.3583C344.145 42.4842 344.206 41.6101 344.206 40.736L344.206 10.0028L353.541 10.0028L353.541 39.32C353.541 42.2919 353.165 44.8005 352.414 46.8459C351.662 48.8913 350.377 50.4472 348.559 51.5136C346.741 52.58 344.206 53.1132 340.954 53.1132Z" fill="#f9f9f9" fill-rule="evenodd" opacity="1" stroke="none"/>
<path d="M363.349 52.4839L363.349 16.9781L356.95 16.9781L356.95 10.0028L379.135 10.0028L379.135 16.9781L372.789 16.9781L372.789 52.4839L363.349 52.4839Z" fill="#f9f9f9" fill-rule="evenodd" opacity="1" stroke="none"/>
</g>
<path d="M1.85263 42.4412C1.85263 33.5291 9.07737 26.3043 17.9895 26.3043C26.9017 26.3043 34.1265 33.5291 34.1265 42.4412C34.1265 51.3534 26.9017 58.5782 17.9895 58.5782C9.07737 58.5782 1.85263 51.3534 1.85263 42.4412Z" fill="none" fill-rule="evenodd" opacity="1" stroke="#f9f9f9" stroke-linecap="round" stroke-linejoin="round" stroke-width="3"/>
<path d="M46.5395 42.4412C46.5395 33.5291 53.7642 26.3043 62.6764 26.3043C71.5885 26.3043 78.8133 33.5291 78.8133 42.4412C78.8133 51.3534 71.5885 58.5782 62.6764 58.5782C53.7642 58.5782 46.5395 51.3534 46.5395 42.4412Z" fill="none" fill-rule="evenodd" opacity="1" stroke="#f9f9f9" stroke-linecap="round" stroke-linejoin="round" stroke-width="3"/>
<path d="M18 31.2812C11.83 31.2813 6.8125 36.2675 6.8125 42.4375C6.8125 48.6075 11.83 53.625 18 53.625C24.17 53.625 29.1562 48.6075 29.1562 42.4375C29.1563 36.2675 24.17 31.2812 18 31.2812ZM18 36.25C21.4278 36.25 24.1875 39.0097 24.1875 42.4375L18 36.25Z" fill="#f9f9f9" fill-rule="evenodd" opacity="1" stroke="none"/>
<path d="M62.6875 31.2812C56.5175 31.2813 51.5 36.2675 51.5 42.4375C51.5 48.6075 56.5175 53.625 62.6875 53.625C68.8575 53.625 73.8438 48.6075 73.8438 42.4375C73.8438 36.2675 68.8575 31.2812 62.6875 31.2812ZM62.6875 36.25C66.1152 36.25 68.875 39.0097 68.875 42.4375L62.6875 36.25Z" fill="#f9f9f9" fill-rule="evenodd" opacity="1" stroke="none"/>
<path d="M46.5395 14.4623L46.5395 6.24492C46.5395 3.6124 48.6735 1.47832 51.3061 1.47832L51.3061 1.47832C52.9736 1.48274 54.5177 2.35832 55.3775 3.78714L57.2643 6.91522" fill="none" fill-rule="evenodd" opacity="1" stroke="#f9f9f9" stroke-linecap="round" stroke-linejoin="round" stroke-width="3"/>
<path d="M34.1265 14.4623L34.1265 6.24492C34.1265 3.6124 31.9924 1.47832 29.3599 1.47832L29.3599 1.47832C27.6923 1.48274 26.1482 2.35832 25.2884 3.78714L23.4264 6.91522" fill="none" fill-rule="evenodd" opacity="1" stroke="#f9f9f9" stroke-linecap="round" stroke-linejoin="round" stroke-width="3"/>
<path d="M40.333 13.8913L24.196 18.8565C29.6805 18.8565 34.1265 23.3025 34.1265 28.7869L46.5395 28.7869C46.5395 23.3025 50.9854 18.8565 56.4699 18.8565L40.333 13.8913Z" fill="none" fill-rule="evenodd" opacity="1" stroke="#f9f9f9" stroke-linecap="round" stroke-linejoin="round" stroke-width="3"/>
<path d="M37.8504 21.3391C37.8504 19.968 38.9619 18.8565 40.333 18.8565C41.7041 18.8565 42.8156 19.968 42.8156 21.3391C42.8156 22.7102 41.7041 23.8217 40.333 23.8217C38.9619 23.8217 37.8504 22.7102 37.8504 21.3391Z" fill="none" fill-rule="evenodd" opacity="1" stroke="#f9f9f9" stroke-linecap="round" stroke-linejoin="round" stroke-width="3"/>
<path d="M46.5395 15.8029L46.5395 14.4623C46.5395 10.0337 50.1296 6.44353 54.5583 6.44352L54.5583 6.44352C57.2974 6.45 59.8438 7.85426 61.3109 10.1674L76.2065 33.5535" fill="none" fill-rule="evenodd" opacity="1" stroke="#f9f9f9" stroke-linecap="round" stroke-linejoin="round" stroke-width="3"/>
<path d="M46.5395 42.4412L46.5395 28.7869" fill="none" fill-rule="evenodd" opacity="1" stroke="#f9f9f9" stroke-linecap="round" stroke-linejoin="round" stroke-width="3"/>
<path d="M34.1265 15.8029L34.1265 14.4623C34.1264 10.0337 30.5363 6.44353 26.1076 6.44352L26.1076 6.44352C23.3685 6.45001 20.8221 7.85426 19.355 10.1674L4.45937 33.5535" fill="none" fill-rule="evenodd" opacity="1" stroke="#f9f9f9" stroke-linecap="round" stroke-linejoin="round" stroke-width="3"/>
<path d="M34.1265 42.4412L34.1265 28.7869" fill="none" fill-rule="evenodd" opacity="1" stroke="#f9f9f9" stroke-linecap="round" stroke-linejoin="round" stroke-width="3"/>
</g>
</svg>
