<?xml version="1.0" encoding="UTF-8" standalone="no"?>
<!DOCTYPE svg PUBLIC "-//W3C//DTD SVG 1.1//EN" "http://www.w3.org/Graphics/SVG/1.1/DTD/svg11.dtd"
[
<!ATTLIST g
  xmlns:vectornator CDATA #FIXED "http://vectornator.io"
  vectornator:layerName CDATA #IMPLIED >
<!ATTLIST g
  xmlns:vectornator CDATA #FIXED "http://vectornator.io"
  vectornator:mask CDATA #IMPLIED >
<!ATTLIST text
  xmlns:vectornator CDATA #FIXED "http://vectornator.io"
  vectornator:width CDATA #IMPLIED >
<!ATTLIST text
  xmlns:vectornator CDATA #FIXED "http://vectornator.io"
  vectornator:text CDATA #IMPLIED >

<!ATTLIST path
  xmlns:vectornator CDATA #FIXED "http://vectornator.io"
  vectornator:blendMode CDATA #IMPLIED >
<!ATTLIST path
  xmlns:vectornator CDATA #FIXED "http://vectornator.io"
  vectornator:shadowColor CDATA #IMPLIED >
<!ATTLIST path
  xmlns:vectornator CDATA #FIXED "http://vectornator.io"
  vectornator:shadowOpacity CDATA #IMPLIED >
<!ATTLIST path
  xmlns:vectornator CDATA #FIXED "http://vectornator.io"
  vectornator:shadowRadius CDATA #IMPLIED >
<!ATTLIST path
  xmlns:vectornator CDATA #FIXED "http://vectornator.io"
  vectornator:shadowOffset CDATA #IMPLIED >
<!ATTLIST path
  xmlns:vectornator CDATA #FIXED "http://vectornator.io"
  vectornator:shadowAngle CDATA #IMPLIED >

<!ATTLIST image
  xmlns:vectornator CDATA #FIXED "http://vectornator.io"
  vectornator:blendMode CDATA #IMPLIED >
<!ATTLIST image
  xmlns:vectornator CDATA #FIXED "http://vectornator.io"
  vectornator:shadowColor CDATA #IMPLIED >
<!ATTLIST image
  xmlns:vectornator CDATA #FIXED "http://vectornator.io"
  vectornator:shadowOpacity CDATA #IMPLIED >
<!ATTLIST image
  xmlns:vectornator CDATA #FIXED "http://vectornator.io"
  vectornator:shadowRadius CDATA #IMPLIED >
<!ATTLIST image
  xmlns:vectornator CDATA #FIXED "http://vectornator.io"
  vectornator:shadowOffset CDATA #IMPLIED >
<!ATTLIST image
  xmlns:vectornator CDATA #FIXED "http://vectornator.io"
  vectornator:shadowAngle CDATA #IMPLIED >

<!ATTLIST g
  xmlns:vectornator CDATA #FIXED "http://vectornator.io"
  vectornator:blendMode CDATA #IMPLIED >
<!ATTLIST g
  xmlns:vectornator CDATA #FIXED "http://vectornator.io"
  vectornator:shadowColor CDATA #IMPLIED >
<!ATTLIST g
  xmlns:vectornator CDATA #FIXED "http://vectornator.io"
  vectornator:shadowOpacity CDATA #IMPLIED >
<!ATTLIST g
  xmlns:vectornator CDATA #FIXED "http://vectornator.io"
  vectornator:shadowRadius CDATA #IMPLIED >
<!ATTLIST g
  xmlns:vectornator CDATA #FIXED "http://vectornator.io"
  vectornator:shadowOffset CDATA #IMPLIED >
<!ATTLIST g
  xmlns:vectornator CDATA #FIXED "http://vectornator.io"
  vectornator:shadowAngle CDATA #IMPLIED >

<!ENTITY % SVG.filter.extra.content  "| feDropShadow" >
<!ELEMENT feDropShadow EMPTY>
<!ATTLIST feDropShadow
  xmlns:svg CDATA #FIXED "http://www.w3.org/Graphics/SVG/1.1/DTD/svg11.dtd"
  dx CDATA #IMPLIED>
<!ATTLIST feDropShadow
  xmlns:svg CDATA #FIXED "http://www.w3.org/Graphics/SVG/1.1/DTD/svg11.dtd"
  dy CDATA #IMPLIED>
<!ATTLIST feDropShadow
  xmlns:svg CDATA #FIXED "http://www.w3.org/Graphics/SVG/1.1/DTD/svg11.dtd"
  stdDeviation CDATA #IMPLIED>
<!ATTLIST feDropShadow
  xmlns:svg CDATA #FIXED "http://www.w3.org/Graphics/SVG/1.1/DTD/svg11.dtd"
  flood-opacity CDATA #IMPLIED>
<!ATTLIST feDropShadow
  xmlns:svg CDATA #FIXED "http://www.w3.org/Graphics/SVG/1.1/DTD/svg11.dtd"
  in CDATA #IMPLIED>
<!ATTLIST feDropShadow
  xmlns:svg CDATA #FIXED "http://www.w3.org/Graphics/SVG/1.1/DTD/svg11.dtd"
  result CDATA #IMPLIED>
<!ATTLIST feDropShadow
  xmlns:svg CDATA #FIXED "http://www.w3.org/Graphics/SVG/1.1/DTD/svg11.dtd"
  flood-color CDATA #IMPLIED>
]
>
<!-- Created with Vectornator (http://vectornator.io/) -->
<svg height="100%" stroke-miterlimit="10" style="fill-rule:nonzero;clip-rule:evenodd;stroke-linecap:round;stroke-linejoin:round;" version="1.1" viewBox="0 0 491.878 61.7488" width="100%" xml:space="preserve" xmlns="http://www.w3.org/2000/svg" xmlns:vectornator="http://vectornator.io" xmlns:xlink="http://www.w3.org/1999/xlink">
<defs/>
<clipPath id="ArtboardFrame">
<rect height="61.7488" width="491.878" x="0" y="0"/>
</clipPath>
<g clip-path="url(#ArtboardFrame)" id="Layer-1" vectornator:layerName="Layer 1">
<g opacity="1">
<path d="M110.873 59.112L110.873 10.368L102.089 10.368L102.089 0.792L132.545 0.792L132.545 10.368L123.833 10.368L123.833 59.112L110.873 59.112Z" fill="#494f76" fill-rule="evenodd" opacity="1" stroke="none"/>
<path d="M153.785 59.976C149.417 59.976 145.961 59.208 143.417 57.672C140.873 56.136 139.049 53.928 137.945 51.048C136.841 48.168 136.289 44.736 136.289 40.752L136.289 19.08C136.289 15.048 136.841 11.616 137.945 8.784C139.049 5.952 140.873 3.78 143.417 2.268C145.961 0.756 149.417 0 153.785 0C158.201 0 161.693 0.756 164.261 2.268C166.829 3.78 168.665 5.952 169.769 8.784C170.873 11.616 171.425 15.048 171.425 19.08L171.425 40.752C171.425 44.736 170.873 48.168 169.769 51.048C168.665 53.928 166.829 56.136 164.261 57.672C161.693 59.208 158.201 59.976 153.785 59.976ZM153.785 50.832C155.129 50.832 156.113 50.496 156.737 49.824C157.361 49.152 157.769 48.288 157.961 47.232C158.153 46.176 158.249 45.096 158.249 43.992L158.249 15.912C158.249 14.76 158.153 13.668 157.961 12.636C157.769 11.604 157.361 10.752 156.737 10.08C156.113 9.408 155.129 9.072 153.785 9.072C152.537 9.072 151.601 9.408 150.977 10.08C150.353 10.752 149.945 11.604 149.753 12.636C149.561 13.668 149.465 14.76 149.465 15.912L149.465 43.992C149.465 45.096 149.549 46.176 149.717 47.232C149.885 48.288 150.269 49.152 150.869 49.824C151.469 50.496 152.441 50.832 153.785 50.832Z" fill="#494f76" fill-rule="evenodd" opacity="1" stroke="none"/>
<path d="M179.273 59.112L179.273 0.792L198.857 0.792C202.361 0.792 205.241 1.452 207.497 2.772C209.753 4.092 211.433 6.012 212.537 8.532C213.641 11.052 214.193 14.112 214.193 17.712C214.193 22.224 213.449 25.668 211.961 28.044C210.473 30.42 208.457 32.064 205.913 32.976C203.369 33.888 200.513 34.344 197.345 34.344L192.161 34.344L192.161 59.112L179.273 59.112ZM192.161 25.344L196.481 25.344C198.065 25.344 199.265 25.056 200.081 24.48C200.897 23.904 201.437 23.04 201.701 21.888C201.965 20.736 202.097 19.272 202.097 17.496C202.097 16.008 201.989 14.7 201.773 13.572C201.557 12.444 201.041 11.544 200.225 10.872C199.409 10.2 198.137 9.864 196.409 9.864L192.161 9.864L192.161 25.344Z" fill="#494f76" fill-rule="evenodd" opacity="1" stroke="none"/>
<path d="M220.457 59.112L220.457 0.792L233.345 0.792L233.345 59.112L220.457 59.112Z" fill="#494f76" fill-rule="evenodd" opacity="1" stroke="none"/>
<path d="M258.761 59.976C254.345 59.976 250.853 59.172 248.285 57.564C245.717 55.956 243.905 53.7 242.849 50.796C241.793 47.892 241.265 44.472 241.265 40.536L241.265 19.512C241.265 15.48 241.793 12.012 242.849 9.108C243.905 6.204 245.717 3.96 248.285 2.376C250.853 0.792 254.345 0 258.761 0C263.081 0 266.453 0.708 268.877 2.124C271.301 3.54 273.017 5.52 274.025 8.064C275.033 10.608 275.537 13.536 275.537 16.848L275.537 21.888L262.937 21.888L262.937 16.056C262.937 14.904 262.877 13.8 262.757 12.744C262.637 11.688 262.289 10.812 261.713 10.116C261.137 9.42 260.153 9.072 258.761 9.072C257.417 9.072 256.421 9.432 255.773 10.152C255.125 10.872 254.717 11.772 254.549 12.852C254.381 13.932 254.297 15.072 254.297 16.272L254.297 43.704C254.297 45 254.405 46.188 254.621 47.268C254.837 48.348 255.269 49.212 255.917 49.86C256.565 50.508 257.513 50.832 258.761 50.832C260.105 50.832 261.065 50.484 261.641 49.788C262.217 49.092 262.577 48.192 262.721 47.088C262.865 45.984 262.937 44.856 262.937 43.704L262.937 37.584L275.537 37.584L275.537 42.624C275.537 45.936 275.045 48.9 274.061 51.516C273.077 54.132 271.373 56.196 268.949 57.708C266.525 59.22 263.129 59.976 258.761 59.976Z" fill="#494f76" fill-rule="evenodd" opacity="1" stroke="none"/>
<path d="M316.505 59.976C312.857 59.976 309.809 59.328 307.361 58.032C304.913 56.736 303.065 54.732 301.817 52.02C300.569 49.308 299.873 45.792 299.729 41.472L310.745 39.816C310.793 42.312 311.021 44.328 311.429 45.864C311.837 47.4 312.413 48.504 313.157 49.176C313.901 49.848 314.801 50.184 315.857 50.184C317.201 50.184 318.077 49.728 318.485 48.816C318.893 47.904 319.097 46.944 319.097 45.936C319.097 43.536 318.521 41.508 317.369 39.852C316.217 38.196 314.657 36.528 312.689 34.848L307.649 30.456C305.441 28.584 303.581 26.46 302.069 24.084C300.557 21.708 299.801 18.768 299.801 15.264C299.801 10.32 301.265 6.54 304.193 3.924C307.121 1.308 311.105 0 316.145 0C319.265 0 321.773 0.528 323.669 1.584C325.565 2.64 327.005 4.02 327.989 5.724C328.973 7.428 329.645 9.228 330.005 11.124C330.365 13.02 330.569 14.832 330.617 16.56L319.529 17.928C319.481 16.2 319.373 14.7 319.205 13.428C319.037 12.156 318.689 11.172 318.161 10.476C317.633 9.78 316.817 9.432 315.713 9.432C314.513 9.432 313.637 9.936 313.085 10.944C312.533 11.952 312.257 12.96 312.257 13.968C312.257 16.128 312.773 17.892 313.805 19.26C314.837 20.628 316.193 22.056 317.873 23.544L322.697 27.792C325.241 29.952 327.389 32.4 329.141 35.136C330.893 37.872 331.769 41.256 331.769 45.288C331.769 48.024 331.145 50.508 329.897 52.74C328.649 54.972 326.885 56.736 324.605 58.032C322.325 59.328 319.625 59.976 316.505 59.976Z" fill="#494f76" fill-rule="evenodd" opacity="1" stroke="none"/>
<path d="M354.737 59.976C350.321 59.976 346.829 59.172 344.261 57.564C341.693 55.956 339.881 53.7 338.825 50.796C337.769 47.892 337.241 44.472 337.241 40.536L337.241 19.512C337.241 15.48 337.769 12.012 338.825 9.108C339.881 6.204 341.693 3.96 344.261 2.376C346.829 0.792 350.321 0 354.737 0C359.057 0 362.429 0.708 364.853 2.124C367.277 3.54 368.993 5.52 370.001 8.064C371.009 10.608 371.513 13.536 371.513 16.848L371.513 21.888L358.913 21.888L358.913 16.056C358.913 14.904 358.853 13.8 358.733 12.744C358.613 11.688 358.265 10.812 357.689 10.116C357.113 9.42 356.129 9.072 354.737 9.072C353.393 9.072 352.397 9.432 351.749 10.152C351.101 10.872 350.693 11.772 350.525 12.852C350.357 13.932 350.273 15.072 350.273 16.272L350.273 43.704C350.273 45 350.381 46.188 350.597 47.268C350.813 48.348 351.245 49.212 351.893 49.86C352.541 50.508 353.489 50.832 354.737 50.832C356.081 50.832 357.041 50.484 357.617 49.788C358.193 49.092 358.553 48.192 358.697 47.088C358.841 45.984 358.913 44.856 358.913 43.704L358.913 37.584L371.513 37.584L371.513 42.624C371.513 45.936 371.021 48.9 370.037 51.516C369.053 54.132 367.349 56.196 364.925 57.708C362.501 59.22 359.105 59.976 354.737 59.976Z" fill="#494f76" fill-rule="evenodd" opacity="1" stroke="none"/>
<path d="M395.273 59.976C390.905 59.976 387.449 59.208 384.905 57.672C382.361 56.136 380.537 53.928 379.433 51.048C378.329 48.168 377.777 44.736 377.777 40.752L377.777 19.08C377.777 15.048 378.329 11.616 379.433 8.784C380.537 5.952 382.361 3.78 384.905 2.268C387.449 0.756 390.905 0 395.273 0C399.689 0 403.181 0.756 405.749 2.268C408.317 3.78 410.153 5.952 411.257 8.784C412.361 11.616 412.913 15.048 412.913 19.08L412.913 40.752C412.913 44.736 412.361 48.168 411.257 51.048C410.153 53.928 408.317 56.136 405.749 57.672C403.181 59.208 399.689 59.976 395.273 59.976ZM395.273 50.832C396.617 50.832 397.601 50.496 398.225 49.824C398.849 49.152 399.257 48.288 399.449 47.232C399.641 46.176 399.737 45.096 399.737 43.992L399.737 15.912C399.737 14.76 399.641 13.668 399.449 12.636C399.257 11.604 398.849 10.752 398.225 10.08C397.601 9.408 396.617 9.072 395.273 9.072C394.025 9.072 393.089 9.408 392.465 10.08C391.841 10.752 391.433 11.604 391.241 12.636C391.049 13.668 390.953 14.76 390.953 15.912L390.953 43.992C390.953 45.096 391.037 46.176 391.205 47.232C391.373 48.288 391.757 49.152 392.357 49.824C392.957 50.496 393.929 50.832 395.273 50.832Z" fill="#494f76" fill-rule="evenodd" opacity="1" stroke="none"/>
<path d="M437.609 59.976C433.145 59.976 429.653 59.244 427.133 57.78C424.613 56.316 422.849 54.18 421.841 51.372C420.833 48.564 420.329 45.12 420.329 41.04L420.329 0.792L433.073 0.792L433.073 42.984C433.073 44.184 433.169 45.384 433.361 46.584C433.553 47.784 433.973 48.768 434.621 49.536C435.269 50.304 436.265 50.688 437.609 50.688C439.001 50.688 440.009 50.304 440.633 49.536C441.257 48.768 441.653 47.784 441.821 46.584C441.989 45.384 442.073 44.184 442.073 42.984L442.073 0.792L454.889 0.792L454.889 41.04C454.889 45.12 454.373 48.564 453.341 51.372C452.309 54.18 450.545 56.316 448.049 57.78C445.553 59.244 442.073 59.976 437.609 59.976Z" fill="#494f76" fill-rule="evenodd" opacity="1" stroke="none"/>
<path d="M468.353 59.112L468.353 10.368L459.569 10.368L459.569 0.792L490.025 0.792L490.025 10.368L481.313 10.368L481.313 59.112L468.353 59.112Z" fill="#494f76" fill-rule="evenodd" opacity="1" stroke="none"/>
</g>
<g opacity="1">
<path d="M1.85263 42.4412C1.85263 33.5291 9.07737 26.3043 17.9895 26.3043C26.9017 26.3043 34.1265 33.5291 34.1265 42.4412C34.1265 51.3534 26.9017 58.5782 17.9895 58.5782C9.07737 58.5782 1.85263 51.3534 1.85263 42.4412Z" fill="none" fill-rule="evenodd" opacity="1" stroke="#494f76" stroke-linecap="round" stroke-linejoin="round" stroke-width="3"/>
<path d="M46.5395 42.4412C46.5395 33.5291 53.7642 26.3043 62.6764 26.3043C71.5885 26.3043 78.8133 33.5291 78.8133 42.4412C78.8133 51.3534 71.5885 58.5782 62.6764 58.5782C53.7642 58.5782 46.5395 51.3534 46.5395 42.4412Z" fill="none" fill-rule="evenodd" opacity="1" stroke="#494f76" stroke-linecap="round" stroke-linejoin="round" stroke-width="3"/>
<path d="M6.81784 42.4412C6.81784 36.2713 11.8196 31.2695 17.9895 31.2695C24.1595 31.2695 29.1612 36.2713 29.1612 42.4412C29.1612 48.6112 24.1595 53.6129 17.9895 53.6129C11.8196 53.6129 6.81784 48.6112 6.81784 42.4412Z" fill="none" fill-rule="evenodd" opacity="1" stroke="#494f76" stroke-linecap="round" stroke-linejoin="round" stroke-width="3"/>
<path d="M51.5047 42.4412C51.5047 36.2713 56.5064 31.2695 62.6764 31.2695C68.8463 31.2695 73.8481 36.2713 73.8481 42.4412C73.8481 48.6112 68.8463 53.6129 62.6764 53.6129C56.5064 53.6129 51.5047 48.6112 51.5047 42.4412Z" fill="none" fill-rule="evenodd" opacity="1" stroke="#494f76" stroke-linecap="round" stroke-linejoin="round" stroke-width="3"/>
<path d="M24.196 42.4412C24.196 39.0135 21.4173 36.2347 17.9895 36.2347" fill="none" fill-rule="evenodd" opacity="1" stroke="#494f76" stroke-linecap="round" stroke-linejoin="round" stroke-width="3"/>
<path d="M68.8829 42.4412C68.8829 39.0135 66.1041 36.2347 62.6764 36.2347" fill="none" fill-rule="evenodd" opacity="1" stroke="#494f76" stroke-linecap="round" stroke-linejoin="round" stroke-width="3"/>
<path d="M46.5395 14.4623L46.5395 6.24492C46.5395 3.6124 48.6735 1.47832 51.3061 1.47832L51.3061 1.47832C52.9736 1.48274 54.5177 2.35832 55.3775 3.78714L57.2643 6.91522" fill="none" fill-rule="evenodd" opacity="1" stroke="#494f76" stroke-linecap="round" stroke-linejoin="round" stroke-width="3"/>
<path d="M34.1265 14.4623L34.1265 6.24492C34.1265 3.6124 31.9924 1.47832 29.3599 1.47832L29.3599 1.47832C27.6923 1.48274 26.1482 2.35832 25.2884 3.78714L23.4264 6.91522" fill="none" fill-rule="evenodd" opacity="1" stroke="#494f76" stroke-linecap="round" stroke-linejoin="round" stroke-width="3"/>
<path d="M40.333 13.8913L24.196 18.8565C29.6805 18.8565 34.1265 23.3025 34.1265 28.7869L46.5395 28.7869C46.5395 23.3025 50.9854 18.8565 56.4699 18.8565L40.333 13.8913Z" fill="none" fill-rule="evenodd" opacity="1" stroke="#494f76" stroke-linecap="round" stroke-linejoin="round" stroke-width="3"/>
<path d="M37.8504 21.3391C37.8504 19.968 38.9619 18.8565 40.333 18.8565C41.7041 18.8565 42.8156 19.968 42.8156 21.3391C42.8156 22.7102 41.7041 23.8217 40.333 23.8217C38.9619 23.8217 37.8504 22.7102 37.8504 21.3391Z" fill="none" fill-rule="evenodd" opacity="1" stroke="#494f76" stroke-linecap="round" stroke-linejoin="round" stroke-width="3"/>
<path d="M46.5395 15.8029L46.5395 14.4623C46.5395 10.0337 50.1296 6.44353 54.5583 6.44352L54.5583 6.44352C57.2974 6.45 59.8438 7.85426 61.3109 10.1674L76.2065 33.5535" fill="none" fill-rule="evenodd" opacity="1" stroke="#494f76" stroke-linecap="round" stroke-linejoin="round" stroke-width="3"/>
<path d="M46.5395 42.4412L46.5395 28.7869" fill="none" fill-rule="evenodd" opacity="1" stroke="#494f76" stroke-linecap="round" stroke-linejoin="round" stroke-width="3"/>
<path d="M34.1265 15.8029L34.1265 14.4623C34.1264 10.0337 30.5363 6.44353 26.1076 6.44352L26.1076 6.44352C23.3685 6.45001 20.8221 7.85426 19.355 10.1674L4.45937 33.5535" fill="none" fill-rule="evenodd" opacity="1" stroke="#494f76" stroke-linecap="round" stroke-linejoin="round" stroke-width="3"/>
<path d="M34.1265 42.4412L34.1265 28.7869" fill="none" fill-rule="evenodd" opacity="1" stroke="#494f76" stroke-linecap="round" stroke-linejoin="round" stroke-width="3"/>
</g>
</g>
</svg>
